<mxfile host="app.diagrams.net" modified="2023-12-18T17:46:24.855Z" agent="Mozilla/5.0 (Windows NT 10.0; Win64; x64) AppleWebKit/537.36 (KHTML, like Gecko) Chrome/120.0.0.0 Safari/537.36" etag="qLDoRGhgjC0ziJ9XXpiB" version="22.1.11" type="device">
  <diagram name="Page-1" id="wAQNByh9zCU4eWlw7y7f">
    <mxGraphModel dx="267" dy="220" grid="1" gridSize="10" guides="1" tooltips="1" connect="1" arrows="1" fold="1" page="1" pageScale="1" pageWidth="850" pageHeight="1100" math="0" shadow="0">
      <root>
        <mxCell id="0" />
        <mxCell id="1" parent="0" />
        <mxCell id="2Exkv4dU7JGD6MKItLq--90" value="" style="rounded=0;whiteSpace=wrap;html=1;" parent="1" vertex="1">
          <mxGeometry x="231.27" y="50" width="448.73" height="770" as="geometry" />
        </mxCell>
        <mxCell id="2Exkv4dU7JGD6MKItLq--1" value="HR" style="shape=umlActor;verticalLabelPosition=bottom;verticalAlign=top;html=1;outlineConnect=0;" parent="1" vertex="1">
          <mxGeometry x="70" y="160" width="30" height="60" as="geometry" />
        </mxCell>
        <mxCell id="2Exkv4dU7JGD6MKItLq--4" value="&lt;b&gt;&lt;font style=&quot;font-size: 14px;&quot;&gt;Use Case Diagram&lt;/font&gt;&lt;/b&gt;" style="text;html=1;align=center;verticalAlign=middle;resizable=0;points=[];autosize=1;strokeColor=none;fillColor=none;" parent="1" vertex="1">
          <mxGeometry x="342.5" width="150" height="30" as="geometry" />
        </mxCell>
        <mxCell id="2Exkv4dU7JGD6MKItLq--9" value="&lt;b&gt;Colombo Institute of Studies (CIS)&lt;/b&gt;" style="text;html=1;align=center;verticalAlign=middle;resizable=0;points=[];autosize=1;strokeColor=none;fillColor=none;" parent="1" vertex="1">
          <mxGeometry x="327.5" y="53" width="220" height="30" as="geometry" />
        </mxCell>
        <mxCell id="2Exkv4dU7JGD6MKItLq--10" value="Login" style="ellipse;whiteSpace=wrap;html=1;direction=south;" parent="1" vertex="1">
          <mxGeometry x="330" y="98" width="75" height="40" as="geometry" />
        </mxCell>
        <mxCell id="2Exkv4dU7JGD6MKItLq--13" style="rounded=0;orthogonalLoop=1;jettySize=auto;html=1;exitX=1;exitY=0.3333333333333333;exitDx=0;exitDy=0;entryX=0.5;entryY=1;entryDx=0;entryDy=0;endArrow=none;endFill=0;exitPerimeter=0;" parent="1" source="2Exkv4dU7JGD6MKItLq--1" target="2Exkv4dU7JGD6MKItLq--10" edge="1">
          <mxGeometry relative="1" as="geometry">
            <mxPoint x="220" y="145" as="sourcePoint" />
          </mxGeometry>
        </mxCell>
        <mxCell id="2Exkv4dU7JGD6MKItLq--23" value="&amp;lt;extend&amp;gt;" style="edgeLabel;html=1;align=center;verticalAlign=middle;resizable=0;points=[];" parent="2Exkv4dU7JGD6MKItLq--13" vertex="1" connectable="0">
          <mxGeometry x="-0.1423" y="-3" relative="1" as="geometry">
            <mxPoint x="82" y="-22" as="offset" />
          </mxGeometry>
        </mxCell>
        <mxCell id="2Exkv4dU7JGD6MKItLq--20" value="Authentication" style="ellipse;whiteSpace=wrap;html=1;direction=south;" parent="1" vertex="1">
          <mxGeometry x="500" y="120" width="90" height="40" as="geometry" />
        </mxCell>
        <mxCell id="2Exkv4dU7JGD6MKItLq--38" style="rounded=0;orthogonalLoop=1;jettySize=auto;html=1;exitX=0.5;exitY=0;exitDx=0;exitDy=0;exitPerimeter=0;endArrow=none;endFill=0;" parent="1" source="2Exkv4dU7JGD6MKItLq--33" edge="1">
          <mxGeometry relative="1" as="geometry">
            <mxPoint x="45.14285714285711" y="270" as="targetPoint" />
          </mxGeometry>
        </mxCell>
        <mxCell id="2Exkv4dU7JGD6MKItLq--33" value="HR ASSISTANT" style="shape=umlActor;verticalLabelPosition=bottom;verticalAlign=top;html=1;outlineConnect=0;" parent="1" vertex="1">
          <mxGeometry x="30" y="510" width="30" height="60" as="geometry" />
        </mxCell>
        <mxCell id="2Exkv4dU7JGD6MKItLq--39" style="rounded=0;orthogonalLoop=1;jettySize=auto;html=1;exitX=0.5;exitY=0;exitDx=0;exitDy=0;exitPerimeter=0;endArrow=none;endFill=0;edgeStyle=orthogonalEdgeStyle;" parent="1" source="2Exkv4dU7JGD6MKItLq--35" edge="1">
          <mxGeometry relative="1" as="geometry">
            <mxPoint x="125" y="270" as="targetPoint" />
            <mxPoint x="114.86" y="330" as="sourcePoint" />
          </mxGeometry>
        </mxCell>
        <mxCell id="2Exkv4dU7JGD6MKItLq--35" value="HR MANAGER" style="shape=umlActor;verticalLabelPosition=bottom;verticalAlign=top;html=1;outlineConnect=0;" parent="1" vertex="1">
          <mxGeometry x="110" y="330" width="30" height="60" as="geometry" />
        </mxCell>
        <mxCell id="2Exkv4dU7JGD6MKItLq--44" value="" style="endArrow=none;html=1;rounded=0;jumpSize=2;startSize=0;endSize=3;strokeWidth=1;" parent="1" edge="1">
          <mxGeometry width="50" height="50" relative="1" as="geometry">
            <mxPoint x="45" y="270" as="sourcePoint" />
            <mxPoint x="125" y="270" as="targetPoint" />
            <Array as="points">
              <mxPoint x="90" y="270" />
            </Array>
          </mxGeometry>
        </mxCell>
        <mxCell id="2Exkv4dU7JGD6MKItLq--49" value="" style="endArrow=classic;html=1;rounded=0;" parent="1" edge="1">
          <mxGeometry width="50" height="50" relative="1" as="geometry">
            <mxPoint x="84.75" y="270" as="sourcePoint" />
            <mxPoint x="84.58" y="240" as="targetPoint" />
          </mxGeometry>
        </mxCell>
        <mxCell id="2Exkv4dU7JGD6MKItLq--51" value="Add&amp;nbsp;&lt;br&gt;department" style="ellipse;whiteSpace=wrap;html=1;direction=south;" parent="1" vertex="1">
          <mxGeometry x="330" y="170" width="80" height="50" as="geometry" />
        </mxCell>
        <mxCell id="2Exkv4dU7JGD6MKItLq--52" style="rounded=0;orthogonalLoop=1;jettySize=auto;html=1;exitX=0.5;exitY=1;exitDx=0;exitDy=0;entryX=1;entryY=0.3333333333333333;entryDx=0;entryDy=0;entryPerimeter=0;endArrow=none;endFill=0;" parent="1" source="2Exkv4dU7JGD6MKItLq--51" target="2Exkv4dU7JGD6MKItLq--35" edge="1">
          <mxGeometry relative="1" as="geometry" />
        </mxCell>
        <mxCell id="2Exkv4dU7JGD6MKItLq--53" value="&amp;lt;extend&amp;gt;" style="edgeLabel;html=1;align=center;verticalAlign=middle;resizable=0;points=[];" parent="1" vertex="1" connectable="0">
          <mxGeometry x="291.26535768550013" y="229.99859912035404" as="geometry">
            <mxPoint x="-3" y="-2" as="offset" />
          </mxGeometry>
        </mxCell>
        <mxCell id="2Exkv4dU7JGD6MKItLq--55" value="Verify Department&lt;br&gt;Number" style="ellipse;whiteSpace=wrap;html=1;direction=south;" parent="1" vertex="1">
          <mxGeometry x="490" y="190" width="120" height="50" as="geometry" />
        </mxCell>
        <mxCell id="2Exkv4dU7JGD6MKItLq--56" value="" style="endArrow=none;dashed=1;html=1;rounded=0;exitX=0.5;exitY=0;exitDx=0;exitDy=0;entryX=0.5;entryY=1;entryDx=0;entryDy=0;" parent="1" source="2Exkv4dU7JGD6MKItLq--51" target="2Exkv4dU7JGD6MKItLq--55" edge="1">
          <mxGeometry width="50" height="50" relative="1" as="geometry">
            <mxPoint x="400" y="350" as="sourcePoint" />
            <mxPoint x="450" y="300" as="targetPoint" />
          </mxGeometry>
        </mxCell>
        <mxCell id="2Exkv4dU7JGD6MKItLq--57" value="" style="endArrow=none;dashed=1;html=1;rounded=0;exitX=0.5;exitY=0;exitDx=0;exitDy=0;entryX=0.5;entryY=1;entryDx=0;entryDy=0;" parent="1" edge="1">
          <mxGeometry width="50" height="50" relative="1" as="geometry">
            <mxPoint x="405" y="120" as="sourcePoint" />
            <mxPoint x="500" y="142" as="targetPoint" />
          </mxGeometry>
        </mxCell>
        <mxCell id="2Exkv4dU7JGD6MKItLq--59" value="&amp;lt;include&amp;gt;" style="edgeLabel;html=1;align=center;verticalAlign=middle;resizable=0;points=[];" parent="1" vertex="1" connectable="0">
          <mxGeometry x="459.99535768550015" y="129.99859912035404" as="geometry">
            <mxPoint x="4" y="2" as="offset" />
          </mxGeometry>
        </mxCell>
        <mxCell id="2Exkv4dU7JGD6MKItLq--60" value="&amp;lt;include&amp;gt;" style="edgeLabel;html=1;align=center;verticalAlign=middle;resizable=0;points=[];" parent="1" vertex="1" connectable="0">
          <mxGeometry x="319.99535768550015" y="259.998599120354" as="geometry">
            <mxPoint x="131" y="-52" as="offset" />
          </mxGeometry>
        </mxCell>
        <mxCell id="2Exkv4dU7JGD6MKItLq--61" value="Manage&amp;nbsp;&lt;br&gt;Employee" style="ellipse;whiteSpace=wrap;html=1;direction=south;" parent="1" vertex="1">
          <mxGeometry x="330" y="260" width="80" height="50" as="geometry" />
        </mxCell>
        <mxCell id="2Exkv4dU7JGD6MKItLq--62" style="rounded=0;orthogonalLoop=1;jettySize=auto;html=1;exitX=0.5;exitY=1;exitDx=0;exitDy=0;entryX=1;entryY=0.3333333333333333;entryDx=0;entryDy=0;entryPerimeter=0;endArrow=none;endFill=0;" parent="1" source="2Exkv4dU7JGD6MKItLq--61" target="2Exkv4dU7JGD6MKItLq--35" edge="1">
          <mxGeometry relative="1" as="geometry" />
        </mxCell>
        <mxCell id="2Exkv4dU7JGD6MKItLq--64" style="rounded=0;orthogonalLoop=1;jettySize=auto;html=1;exitX=0;exitY=0.5;exitDx=0;exitDy=0;entryX=1;entryY=1;entryDx=0;entryDy=0;endArrow=none;endFill=0;" parent="1" source="2Exkv4dU7JGD6MKItLq--63" target="2Exkv4dU7JGD6MKItLq--61" edge="1">
          <mxGeometry relative="1" as="geometry" />
        </mxCell>
        <mxCell id="2Exkv4dU7JGD6MKItLq--63" value="Add&amp;nbsp;&lt;br&gt;Employee" style="ellipse;whiteSpace=wrap;html=1;direction=south;" parent="1" vertex="1">
          <mxGeometry x="300" y="360" width="80" height="40" as="geometry" />
        </mxCell>
        <mxCell id="2Exkv4dU7JGD6MKItLq--66" style="rounded=0;orthogonalLoop=1;jettySize=auto;html=1;exitX=0;exitY=0.5;exitDx=0;exitDy=0;entryX=1;entryY=0;entryDx=0;entryDy=0;endArrow=none;endFill=0;" parent="1" source="2Exkv4dU7JGD6MKItLq--65" target="2Exkv4dU7JGD6MKItLq--61" edge="1">
          <mxGeometry relative="1" as="geometry" />
        </mxCell>
        <mxCell id="2Exkv4dU7JGD6MKItLq--65" value="Delete&amp;nbsp;&lt;br&gt;Employee" style="ellipse;whiteSpace=wrap;html=1;direction=south;" parent="1" vertex="1">
          <mxGeometry x="410" y="330" width="75" height="40" as="geometry" />
        </mxCell>
        <mxCell id="2Exkv4dU7JGD6MKItLq--67" value="Edit&amp;nbsp;&lt;br&gt;Employee" style="ellipse;whiteSpace=wrap;html=1;direction=south;" parent="1" vertex="1">
          <mxGeometry x="515" y="290" width="75" height="40" as="geometry" />
        </mxCell>
        <mxCell id="2Exkv4dU7JGD6MKItLq--68" style="rounded=0;orthogonalLoop=1;jettySize=auto;html=1;exitX=0.5;exitY=1;exitDx=0;exitDy=0;entryX=0.353;entryY=0.05;entryDx=0;entryDy=0;entryPerimeter=0;endArrow=none;endFill=0;" parent="1" source="2Exkv4dU7JGD6MKItLq--67" target="2Exkv4dU7JGD6MKItLq--61" edge="1">
          <mxGeometry relative="1" as="geometry" />
        </mxCell>
        <mxCell id="2Exkv4dU7JGD6MKItLq--69" value="Verify EPF Number" style="ellipse;whiteSpace=wrap;html=1;direction=south;" parent="1" vertex="1">
          <mxGeometry x="485" y="420" width="75" height="40" as="geometry" />
        </mxCell>
        <mxCell id="2Exkv4dU7JGD6MKItLq--70" value="" style="endArrow=none;dashed=1;html=1;rounded=0;exitX=0.5;exitY=0;exitDx=0;exitDy=0;entryX=0;entryY=1;entryDx=0;entryDy=0;" parent="1" source="2Exkv4dU7JGD6MKItLq--63" target="2Exkv4dU7JGD6MKItLq--69" edge="1">
          <mxGeometry width="50" height="50" relative="1" as="geometry">
            <mxPoint x="370" y="410" as="sourcePoint" />
            <mxPoint x="420" y="360" as="targetPoint" />
          </mxGeometry>
        </mxCell>
        <mxCell id="2Exkv4dU7JGD6MKItLq--71" value="&amp;lt;include&amp;gt;" style="edgeLabel;html=1;align=center;verticalAlign=middle;resizable=0;points=[];" parent="1" vertex="1" connectable="0">
          <mxGeometry x="484.99535768550015" y="82.99859912035404" as="geometry">
            <mxPoint x="-53" y="314" as="offset" />
          </mxGeometry>
        </mxCell>
        <mxCell id="2Exkv4dU7JGD6MKItLq--72" value="Add&amp;nbsp;&lt;br&gt;Designation" style="ellipse;whiteSpace=wrap;html=1;direction=south;" parent="1" vertex="1">
          <mxGeometry x="310" y="440" width="80" height="40" as="geometry" />
        </mxCell>
        <mxCell id="2Exkv4dU7JGD6MKItLq--73" style="rounded=0;orthogonalLoop=1;jettySize=auto;html=1;exitX=0.5;exitY=1;exitDx=0;exitDy=0;entryX=1;entryY=0.3333333333333333;entryDx=0;entryDy=0;entryPerimeter=0;endArrow=none;endFill=0;" parent="1" source="2Exkv4dU7JGD6MKItLq--72" target="2Exkv4dU7JGD6MKItLq--35" edge="1">
          <mxGeometry relative="1" as="geometry" />
        </mxCell>
        <mxCell id="2Exkv4dU7JGD6MKItLq--75" style="rounded=0;orthogonalLoop=1;jettySize=auto;html=1;exitX=0.5;exitY=1;exitDx=0;exitDy=0;endArrow=none;endFill=0;" parent="1" source="2Exkv4dU7JGD6MKItLq--74" edge="1">
          <mxGeometry relative="1" as="geometry">
            <mxPoint x="140" y="350" as="targetPoint" />
          </mxGeometry>
        </mxCell>
        <mxCell id="2Exkv4dU7JGD6MKItLq--74" value="Create HR&lt;br&gt;Account" style="ellipse;whiteSpace=wrap;html=1;direction=south;" parent="1" vertex="1">
          <mxGeometry x="310" y="500" width="80" height="40" as="geometry" />
        </mxCell>
        <mxCell id="2Exkv4dU7JGD6MKItLq--76" value="Search&amp;nbsp;&lt;br&gt;Employee" style="ellipse;whiteSpace=wrap;html=1;direction=south;" parent="1" vertex="1">
          <mxGeometry x="300" y="580" width="80" height="40" as="geometry" />
        </mxCell>
        <mxCell id="2Exkv4dU7JGD6MKItLq--77" value="by EPF Number" style="ellipse;whiteSpace=wrap;html=1;direction=south;" parent="1" vertex="1">
          <mxGeometry x="452.5" y="530" width="80" height="40" as="geometry" />
        </mxCell>
        <mxCell id="2Exkv4dU7JGD6MKItLq--78" value="By Name" style="ellipse;whiteSpace=wrap;html=1;direction=south;" parent="1" vertex="1">
          <mxGeometry x="515" y="590" width="80" height="40" as="geometry" />
        </mxCell>
        <mxCell id="2Exkv4dU7JGD6MKItLq--79" value="By Designation" style="ellipse;whiteSpace=wrap;html=1;direction=south;" parent="1" vertex="1">
          <mxGeometry x="460" y="630" width="80" height="50" as="geometry" />
        </mxCell>
        <mxCell id="2Exkv4dU7JGD6MKItLq--81" value="By Department" style="ellipse;whiteSpace=wrap;html=1;direction=south;" parent="1" vertex="1">
          <mxGeometry x="372.5" y="670" width="87.5" height="50" as="geometry" />
        </mxCell>
        <mxCell id="2Exkv4dU7JGD6MKItLq--82" value="" style="endArrow=none;dashed=1;html=1;rounded=0;exitX=1;exitY=0.5;exitDx=0;exitDy=0;entryX=0;entryY=0.5;entryDx=0;entryDy=0;" parent="1" source="2Exkv4dU7JGD6MKItLq--76" target="2Exkv4dU7JGD6MKItLq--81" edge="1">
          <mxGeometry width="50" height="50" relative="1" as="geometry">
            <mxPoint x="350" y="510" as="sourcePoint" />
            <mxPoint x="400" y="460" as="targetPoint" />
          </mxGeometry>
        </mxCell>
        <mxCell id="2Exkv4dU7JGD6MKItLq--83" value="&amp;lt;extend&amp;gt;" style="edgeLabel;html=1;align=center;verticalAlign=middle;resizable=0;points=[];" parent="1" vertex="1" connectable="0">
          <mxGeometry x="301.26535768550013" y="239.99859912035404" as="geometry">
            <mxPoint x="75" y="410" as="offset" />
          </mxGeometry>
        </mxCell>
        <mxCell id="2Exkv4dU7JGD6MKItLq--84" value="" style="endArrow=none;dashed=1;html=1;rounded=0;entryX=0;entryY=1;entryDx=0;entryDy=0;exitX=0.851;exitY=0.037;exitDx=0;exitDy=0;exitPerimeter=0;" parent="1" source="2Exkv4dU7JGD6MKItLq--76" target="2Exkv4dU7JGD6MKItLq--79" edge="1">
          <mxGeometry width="50" height="50" relative="1" as="geometry">
            <mxPoint x="350" y="510" as="sourcePoint" />
            <mxPoint x="400" y="460" as="targetPoint" />
          </mxGeometry>
        </mxCell>
        <mxCell id="2Exkv4dU7JGD6MKItLq--85" value="&amp;lt;extend&amp;gt;" style="edgeLabel;html=1;align=center;verticalAlign=middle;resizable=0;points=[];" parent="1" vertex="1" connectable="0">
          <mxGeometry x="309.99535768550015" y="259.998599120354" as="geometry">
            <mxPoint x="116" y="367" as="offset" />
          </mxGeometry>
        </mxCell>
        <mxCell id="2Exkv4dU7JGD6MKItLq--86" value="" style="endArrow=none;dashed=1;html=1;rounded=0;entryX=0.5;entryY=1;entryDx=0;entryDy=0;exitX=0.5;exitY=0;exitDx=0;exitDy=0;" parent="1" source="2Exkv4dU7JGD6MKItLq--76" target="2Exkv4dU7JGD6MKItLq--78" edge="1">
          <mxGeometry width="50" height="50" relative="1" as="geometry">
            <mxPoint x="350" y="510" as="sourcePoint" />
            <mxPoint x="400" y="460" as="targetPoint" />
          </mxGeometry>
        </mxCell>
        <mxCell id="2Exkv4dU7JGD6MKItLq--87" value="&amp;lt;extend&amp;gt;" style="edgeLabel;html=1;align=center;verticalAlign=middle;resizable=0;points=[];" parent="1" vertex="1" connectable="0">
          <mxGeometry x="349.99535768550015" y="269.998599120354" as="geometry">
            <mxPoint x="117" y="340" as="offset" />
          </mxGeometry>
        </mxCell>
        <mxCell id="2Exkv4dU7JGD6MKItLq--88" value="" style="endArrow=none;dashed=1;html=1;rounded=0;entryX=0.5;entryY=1;entryDx=0;entryDy=0;exitX=0;exitY=0;exitDx=0;exitDy=0;" parent="1" source="2Exkv4dU7JGD6MKItLq--76" target="2Exkv4dU7JGD6MKItLq--77" edge="1">
          <mxGeometry width="50" height="50" relative="1" as="geometry">
            <mxPoint x="350" y="510" as="sourcePoint" />
            <mxPoint x="400" y="460" as="targetPoint" />
          </mxGeometry>
        </mxCell>
        <mxCell id="2Exkv4dU7JGD6MKItLq--89" value="&amp;lt;extend&amp;gt;" style="edgeLabel;html=1;align=center;verticalAlign=middle;resizable=0;points=[];" parent="1" vertex="1" connectable="0">
          <mxGeometry x="331.26535768550013" y="269.998599120354" as="geometry">
            <mxPoint x="75" y="299" as="offset" />
          </mxGeometry>
        </mxCell>
        <mxCell id="7nRlWY-UAy9o1rdjIYGv-1" value="View&amp;nbsp; Employee&lt;br&gt;Details" style="ellipse;whiteSpace=wrap;html=1;direction=south;" vertex="1" parent="1">
          <mxGeometry x="300" y="730" width="110" height="50" as="geometry" />
        </mxCell>
        <mxCell id="7nRlWY-UAy9o1rdjIYGv-2" value="" style="endArrow=none;html=1;rounded=0;exitX=1;exitY=0.3333333333333333;exitDx=0;exitDy=0;exitPerimeter=0;entryX=0;entryY=1;entryDx=0;entryDy=0;" edge="1" parent="1" source="2Exkv4dU7JGD6MKItLq--1" target="7nRlWY-UAy9o1rdjIYGv-1">
          <mxGeometry width="50" height="50" relative="1" as="geometry">
            <mxPoint x="340" y="480" as="sourcePoint" />
            <mxPoint x="390" y="430" as="targetPoint" />
          </mxGeometry>
        </mxCell>
        <mxCell id="7nRlWY-UAy9o1rdjIYGv-3" value="" style="endArrow=none;html=1;rounded=0;entryX=0;entryY=1;entryDx=0;entryDy=0;" edge="1" parent="1" target="2Exkv4dU7JGD6MKItLq--76">
          <mxGeometry width="50" height="50" relative="1" as="geometry">
            <mxPoint x="100" y="180" as="sourcePoint" />
            <mxPoint x="390" y="430" as="targetPoint" />
          </mxGeometry>
        </mxCell>
      </root>
    </mxGraphModel>
  </diagram>
</mxfile>
